<svg width="253" height="329" viewBox="0 0 253 329" fill="none" xmlns="http://www.w3.org/2000/svg">
<rect width="253" height="314" rx="56" fill="white"/>
<g filter="url(#filter0_d_69_81)">
<path d="M229.5 173.243C218.5 274.744 126.5 303.885 119 300.744C57.4203 300.744 322.5 -155.257 18 182.243C18 105.751 45 71.243 118 34.7431C249.5 -39.2566 238.209 92.8851 229.5 173.243Z" fill="#2563EB"/>
<path d="M184.723 262.885C184.723 289.395 172.405 168.887 128.223 168.887C68.2226 147.887 78.7226 63.3943 78.7226 36.8846C78.5395 84.3851 94.0398 131.885 138.223 131.885C182.405 131.885 174.723 213.885 184.723 262.885Z" fill="#D8A877"/>
</g>
<defs>
<filter id="filter0_d_69_81" x="4" y="13" width="244.263" height="315.968" filterUnits="userSpaceOnUse" color-interpolation-filters="sRGB">
<feFlood flood-opacity="0" result="BackgroundImageFix"/>
<feColorMatrix in="SourceAlpha" type="matrix" values="0 0 0 0 0 0 0 0 0 0 0 0 0 0 0 0 0 0 127 0" result="hardAlpha"/>
<feOffset dy="14"/>
<feGaussianBlur stdDeviation="7"/>
<feComposite in2="hardAlpha" operator="out"/>
<feColorMatrix type="matrix" values="0 0 0 0 0 0 0 0 0 0 0 0 0 0 0 0 0 0 0.25 0"/>
<feBlend mode="normal" in2="BackgroundImageFix" result="effect1_dropShadow_69_81"/>
<feBlend mode="normal" in="SourceGraphic" in2="effect1_dropShadow_69_81" result="shape"/>
</filter>
</defs>
</svg>
